<?xml version="1.0" encoding="utf-8"?>
<!-- Generator: Adobe Illustrator 20.1.0, SVG Export Plug-In . SVG Version: 6.00 Build 0)  -->
<svg version="1.1" id="Layer_1" xmlns="http://www.w3.org/2000/svg" xmlns:xlink="http://www.w3.org/1999/xlink" x="0px" y="0px"
	 viewBox="0 0 1015.6 336" style="enable-background:new 0 0 1015.6 336;" xml:space="preserve">
<style type="text/css">
	.st0{fill:#F4995B;}
	.st1{fill:#00796B;}
	.st2{fill:#99C1BC;}
	.st3{fill:#F7F7F7;}
	.st4{fill:#016052;}
	.st5{fill:#7E9B96;}
	.st6{fill:#E6E7E8;}
	.st7{fill:#009688;}
</style>
<g>
	<circle class="st0" cx="168" cy="168" r="168"/>
	<g>
		<polygon class="st1" points="166.6,262.8 61.3,236.1 61.3,122.5 69.7,125.5 		"/>
		<polygon class="st2" points="168.7,264.6 70.3,205.9 70.3,94.5 88.2,104.5 		"/>
		<polygon class="st3" points="168.2,263.3 89.3,184 89.3,70.9 168.4,150.3 		"/>
		<polygon class="st4" points="168.9,262.8 274.3,236.1 274.3,122.5 265.9,125.5 		"/>
		<polygon class="st5" points="166.9,264.6 265.3,205.9 265.3,94.5 247.4,104.5 		"/>
		<polygon class="st6" points="167.3,263.3 246.3,184 246.3,70.9 167.2,150.3 		"/>
	</g>
</g>
<g>
	<path class="st7" d="M418.5,255.3V78.6h63.8v12.8h-47.1v66.2h38.6V170h-38.6v72.9h47.6v12.5H418.5z"/>
	<path class="st7" d="M502.3,255.3V129.2h16v13.1c9.3-10,19.4-15,30.4-15c6.3,0,11,2.3,14.4,7c3.3,4.7,5,11.3,5,19.9v101.2h-16
		v-97.8c0-6.4-1-10.9-2.9-13.6c-2-2.7-5-4-9.1-4c-6.9,0-14.1,3.9-21.7,11.6v103.9H502.3z"/>
	<path class="st7" d="M620.5,257.4c-10,0-18-3.2-24-9.7c-6-6.5-9.4-15.2-10.3-26.2l13.4-4c0.9,9.6,3.1,16.6,6.6,21.2
		c3.6,4.5,8.5,6.8,14.9,6.8c5.5,0,9.9-1.6,13.1-4.9c3.1-3.1,4.6-7.3,4.6-12.6c0-0.2,0-0.5,0-0.7c-0.2-8.4-5.3-16.8-15.3-25.1
		l-17.2-14.6c-6-5-10.4-10-13.2-14.8c-2.7-4.7-4-10.2-4-16.4c0-9.2,2.8-16.4,8.3-21.4c5.4-5,12.7-7.5,21.8-7.5c9.3,0,16.5,3,21.5,9
		c5,6,7.8,14,8.4,24.2l-11.3,3.7c-0.5-8.5-2.2-14.7-5.2-18.8c-2.9-4.1-7.2-6.1-12.7-6.1c-5,0-9,1.4-11.9,4.2
		c-2.9,2.7-4.4,6.3-4.4,10.9c0,4.1,0.7,7.7,2.2,10.6c1.5,2.9,4.2,6.1,8.2,9.5l17.8,16c3.2,2.8,5.8,5.2,7.8,7.3
		c2,2.1,4.2,4.7,6.4,7.8c2.3,3.1,4,6.4,5.1,10c1.1,3.6,1.7,7.4,1.8,11.6c0,9.7-2.9,17.1-8.7,22.4
		C638.3,254.7,630.4,257.4,620.5,257.4z"/>
	<path class="st7" d="M700.7,256.9c-8.6,0-14.5-2.4-17.8-7.1c-3.3-4.7-4.9-11.6-5-20.7v-89.3h-15.2v-10.7h15.2v-39h16v39h21v10.7
		h-21v87.8c0,6.4,0.7,10.8,2.2,13.2c1.5,2.4,4.5,3.6,9.1,3.6c2.9,0,5.9-0.3,9-0.9v12C709.4,256.5,704.9,256.9,700.7,256.9z"/>
	<path class="st7" d="M733.1,255.3V129.2h16v17.4c3.8-6.4,8.3-11.1,13.5-14.2c5.2-3.1,10.4-4.6,15.6-4.6c1.3,0,2.2,0,2.8,0.1v17.3
		c-2.3-0.9-4.8-1.4-7.7-1.4c-10.2,0-18.3,4.9-24.2,14.7v96.9H733.1z"/>
	<path class="st7" d="M815.4,257.2c-6.3,0-11.2-2.3-14.5-7c-3.3-4.7-5-11.3-5-19.9V129.2H812V227c0,6.4,1,10.9,2.9,13.6
		c1.9,2.7,4.9,4,9.1,4c7.2,0,14.6-4.1,22.4-12.4V129.2h16v126.2h-16v-14C836.9,252,826.6,257.2,815.4,257.2z"/>
	<path class="st7" d="M918.1,257.4c-5.8,0-10.7-0.9-14.8-2.6c-4.1-1.7-7.4-3.9-9.8-6.7c-2.4-2.7-4.3-6.3-5.7-10.8
		c-1.4-4.5-2.3-9-2.8-13.6c-0.5-4.6-0.7-10-0.7-16.3v-29.4c0-9.2,0.5-16.8,1.5-22.9c1-6.1,2.8-11.3,5.3-15.6c2.5-4.3,6-7.5,10.3-9.4
		c4.4-2,9.9-2.9,16.6-2.9c5.3,0,9.8,0.6,13.6,1.9c3.8,1.3,6.9,3,9.3,5.3c2.4,2.2,4.3,5.1,5.6,8.6c1.4,3.5,2.3,7.2,2.9,11
		c0.5,3.9,0.8,8.4,0.8,13.6v6h-14.8v-6c0-10.8-1.3-18.2-3.8-22.3c-2.6-4.1-7-6.1-13.4-6.1c-7.2,0-12,2.6-14.4,7.7
		c-2.3,5.2-3.5,14.7-3.5,28.5v35.4c0,12.9,1.3,21.9,3.8,27c2.5,5,7.3,7.6,14.2,7.6c3,0,5.5-0.4,7.6-1.3c2.1-0.9,3.7-2,5-3.5
		s2.2-3.6,2.9-6.2c0.7-2.6,1.2-5.4,1.4-8.4c0.2-2.9,0.3-6.7,0.3-11.1v-6.9h14.8v6.2c0,5.5-0.2,10.3-0.7,14.4c-0.5,4-1.4,8-2.8,11.8
		c-1.4,3.8-3.2,6.9-5.5,9.3c-2.3,2.4-5.4,4.3-9.3,5.7C928.1,256.6,923.5,257.4,918.1,257.4z"/>
	<path class="st7" d="M1001.5,256.9c-8.6,0-14.5-2.4-17.8-7.1c-3.3-4.7-4.9-11.6-5-20.7v-89.3h-15.2v-10.7h15.2v-39h16v39h21v10.7
		h-21v87.8c0,6.4,0.7,10.8,2.2,13.2c1.5,2.4,4.5,3.6,9.1,3.6c2.9,0,5.9-0.3,9-0.9v12C1010.1,256.5,1005.7,256.9,1001.5,256.9z"/>
</g>
</svg>
